<svg xmlns="http://www.w3.org/2000/svg" width="256" height="256" viewBox="0 0 24 24"><g fill="#be38f3" fill-rule="evenodd" clip-rule="evenodd"><path d="M9.746 18.286q-.613-.135-1.2-.36a5.6 5.6 0 0 1-1.088-.55a4.31 4.31 0 0 1-1.999-3.507a6.2 6.2 0 0 1 1.25-3.937a6.3 6.3 0 0 1 2.068-1.839a6.8 6.8 0 0 1 2.668-.77a6.235 6.235 0 0 1 5.996 3.558a4.577 4.577 0 0 1-1.76 6.376a.39.39 0 0 0-.14.54a.38.38 0 0 0 .53.14c3.208-1.76 3.578-4.907 2.369-7.536a7.5 7.5 0 0 0-6.995-4.396a7.7 7.7 0 0 0-3.208.939a7.3 7.3 0 0 0-3.687 6.995a5.2 5.2 0 0 0 2.458 4.127q.6.346 1.26.56q.635.22 1.298.34a.36.36 0 0 0 .42-.28a.35.35 0 0 0-.24-.4" fill="#be38f3" /><path d="M11.905 16.807a2.68 2.68 0 0 0 1.998-1.709a.38.38 0 0 0-.16-.53a.38.38 0 0 0-.53.16a1.78 1.78 0 0 1-1.838.77a2.4 2.4 0 0 1-.6-.15a2.42 2.42 0 0 1-1.269-.95a.34.34 0 0 0-.5-.18a.35.35 0 0 0-.18.46c.209.75.69 1.396 1.35 1.81c.306.178.646.29.999.329q.365.05.73-.01" fill="#be38f3" /><path d="M23.886 12.45a3 3 0 0 0-.29-.76a3.47 3.47 0 0 0-2.238-1.678a12 12 0 0 0-.36-1.739a9.13 9.13 0 0 0-5.066-5.806a10.15 10.15 0 0 0-7.995.35a8.4 8.4 0 0 0-5.046 6.076c0 .24 0 .48-.06.72A3.48 3.48 0 0 0 .413 11.37q-.196.36-.29.76a3 3 0 0 0 0 1.698a2.67 2.67 0 0 0 1.889 1.699q.297.094.61.13q.304.03.609 0a.4.4 0 0 0 .38-.33a.3.3 0 0 0 .26 0a.34.34 0 0 0 .2-.32a17.3 17.3 0 0 1-.44-2.998c-.056-.987.014-1.978.21-2.948a7.47 7.47 0 0 1 4.636-5.046a9 9 0 0 1 6.995-.33a8.05 8.05 0 0 1 4.527 4.917a10.3 10.3 0 0 1-.19 6.995a.39.39 0 0 0 .22.51a.3.3 0 0 0 .19 0a9.7 9.7 0 0 1-1 1.648c-.37.501-.802.951-1.289 1.34a4.2 4.2 0 0 1-2.718 1.079a.39.39 0 0 0-.47-.18a.4.4 0 0 0-.22.52c0 .13 0 .22-.13.31c-.16.12-.35.197-.549.219a1.8 1.8 0 0 1-.84-.04a2 2 0 0 1-.759-.37c-.17-.12-.3-.2-.24-.32a.8.8 0 0 1 .34-.34l.68-.22a4 4 0 0 1 .58-.05h.619a.34.34 0 0 0 .39-.279a.35.35 0 0 0-.28-.41l-1.33-.22a3 3 0 0 0-.509 0a2.5 2.5 0 0 0-.53.1a1.72 1.72 0 0 0-1.219 1.14a1.53 1.53 0 0 0 .74 1.639c.4.264.854.434 1.329.5c.453.045.911-.013 1.339-.17c.41-.155.759-.435 1-.8q.064-.14.1-.29a4.8 4.8 0 0 0 2.997-.58a5.5 5.5 0 0 0 1.999-1.998a7.2 7.2 0 0 0 .909-2.328h.28q.31-.05.61-.14a2.67 2.67 0 0 0 1.808-1.7a2.94 2.94 0 0 0 .03-1.718M2.741 14.808a4 4 0 0 1-.42-.17a1.73 1.73 0 0 1-.93-1.179a2.5 2.5 0 0 1 .001-.999a2.92 2.92 0 0 1 1.349-1.998q-.015.821.06 1.638c.1.984.287 1.958.56 2.908c-.06 0-.1-.07-.17-.07zm18.987.14c-1.51.73-.1-.939-.27-4.117a3 3 0 0 1 1.189 1.919c.066.33.066.67 0 1a1.72 1.72 0 0 1-.96 1.198z" fill="#be38f3" /><path d="M8.837 10.521a1.4 1.4 0 0 0-.53.09c-.38.15-.72.382-1 .68a.35.35 0 0 0-.11.48c.14.25 2 0 2.36 0q.239.01.469.08a.41.41 0 0 0 .55-.13a.4.4 0 0 0-.13-.54a2.4 2.4 0 0 0-1.08-.62a1.6 1.6 0 0 0-.53-.04m7.246 1.249a.35.35 0 0 0-.12-.48a2.6 2.6 0 0 0-1-.679a1.4 1.4 0 0 0-.53-.09c-.181-.01-.364.01-.539.06c-.407.11-.779.324-1.08.62a.4.4 0 0 0-.119.54a.4.4 0 0 0 .55.13q.229-.07.47-.08c1.128-.09 2.158.34 2.368-.02" fill="#be38f3" /></g></svg>