<?xml version="1.0" encoding="UTF-8"?>
<svg id="svg126" xmlns="http://www.w3.org/2000/svg" xmlns:xlink="http://www.w3.org/1999/xlink" xmlns:svg="http://www.w3.org/2000/svg" xmlns:sodipodi="http://sodipodi.sourceforge.net/DTD/sodipodi-0.dtd" xmlns:rdf="http://www.w3.org/1999/02/22-rdf-syntax-ns#" xmlns:inkscape="http://www.inkscape.org/namespaces/inkscape" xmlns:dc="http://purl.org/dc/elements/1.1/" xmlns:cc="http://creativecommons.org/ns#" version="1.1" viewBox="0 0 73.9 73.9">
  <!-- Generator: Adobe Illustrator 30.2.1, SVG Export Plug-In . SVG Version: 2.1.1 Build 1)  -->
  <defs>
    <style>
      .st0 {
        fill: url(#radial-gradient);
      }

      .st1 {
        fill: url(#radial-gradient1);
        isolation: isolate;
        opacity: .9;
      }

      .st2 {
        fill: url(#radial-gradient3);
      }

      .st3 {
        fill: url(#radial-gradient2);
      }
    </style>
    <radialGradient id="radial-gradient" cx="59.63" cy="15.2" fx="59.63" fy="15.2" r="54.6" gradientTransform="translate(0 73.89) scale(1 -1)" gradientUnits="userSpaceOnUse">
      <stop offset="0" stop-color="#002c0e"/>
      <stop offset=".24" stop-color="#008132"/>
      <stop offset=".31" stop-color="#198b2c"/>
      <stop offset=".47" stop-color="#4da121"/>
      <stop offset=".61" stop-color="#72b018"/>
      <stop offset=".73" stop-color="#8aba13"/>
      <stop offset=".8" stop-color="#92bd11"/>
      <stop offset=".82" stop-color="#90bc14" stop-opacity=".96"/>
      <stop offset=".85" stop-color="#89bb1c" stop-opacity=".86"/>
      <stop offset=".89" stop-color="#7eb829" stop-opacity=".68"/>
      <stop offset=".93" stop-color="#6fb53b" stop-opacity=".44"/>
      <stop offset=".98" stop-color="#5cb052" stop-opacity=".13"/>
      <stop offset="1" stop-color="#54ae5c" stop-opacity="0"/>
    </radialGradient>
    <radialGradient id="radial-gradient1" cx="36.46" cy="34.63" fx="36.46" fy="34.63" r="34.49" gradientTransform="translate(0 73.89) scale(1 -1)" gradientUnits="userSpaceOnUse">
      <stop offset=".17" stop-color="#bcccd4"/>
      <stop offset=".46" stop-color="#dfe7eb" stop-opacity=".95"/>
      <stop offset=".75" stop-color="#f7f9fa" stop-opacity=".91"/>
      <stop offset="1" stop-color="#fff" stop-opacity=".9"/>
    </radialGradient>
    <radialGradient id="radial-gradient2" cx="15.6" cy="61.79" fx="15.6" fy="61.79" r="54.32" gradientTransform="translate(0 73.89) scale(1 -1)" gradientUnits="userSpaceOnUse">
      <stop offset="0" stop-color="#00315d"/>
      <stop offset=".32" stop-color="#007ec4"/>
      <stop offset=".33" stop-color="#0481c5"/>
      <stop offset=".44" stop-color="#38a2d8"/>
      <stop offset=".54" stop-color="#5ebae5"/>
      <stop offset=".61" stop-color="#75c9ed"/>
      <stop offset=".66" stop-color="#7dcef0"/>
      <stop offset=".7" stop-color="#7bcdef" stop-opacity=".97"/>
      <stop offset=".75" stop-color="#74c9ec" stop-opacity=".89"/>
      <stop offset=".81" stop-color="#6ac4e7" stop-opacity=".76"/>
      <stop offset=".88" stop-color="#5bbce0" stop-opacity=".57"/>
      <stop offset=".96" stop-color="#48b2d8" stop-opacity=".34"/>
      <stop offset="1" stop-color="#3dacd3" stop-opacity=".2"/>
    </radialGradient>
    <radialGradient id="radial-gradient3" cx="35.94" cy="37.93" fx="35.94" fy="37.93" r="38.23" gradientTransform="translate(0 73.89) scale(1 -1)" gradientUnits="userSpaceOnUse">
      <stop offset=".26" stop-color="#fff"/>
      <stop offset=".45" stop-color="#b2e2f6" stop-opacity=".91"/>
      <stop offset=".88" stop-color="#009ee0" stop-opacity=".7"/>
      <stop offset=".89" stop-color="#13a5e2" stop-opacity=".74"/>
      <stop offset=".92" stop-color="#46b8e8" stop-opacity=".86"/>
      <stop offset=".95" stop-color="#84d0f0"/>
    </radialGradient>
  </defs>
  <sodipodi:namedview id="namedview61" bordercolor="#eeeeee" borderopacity="1" inkscape:current-layer="svg126" inkscape:cx="98.782708" inkscape:cy="37.00987" inkscape:pagecheckerboard="0" inkscape:pageopacity="0" inkscape:pageshadow="0" inkscape:window-height="1334" inkscape:window-maximized="1" inkscape:window-width="2560" inkscape:window-x="-11" inkscape:window-y="-11" inkscape:zoom="7.4304503" pagecolor="#505050" showgrid="false"/>
  <g id="Calque_2">
    <g id="Calque_1-2">
      <path id="path84" class="st0" d="M70.54,37.6c-4-7.9-18.5,23.8-45.3,23.6-7.9-.1-13.3-2.6-17.3-6.5l-2.2,2.3c2.56,3.89,5.82,7.28,9.6,10,8.11,5.77,18.2,8.04,28,6.3,18.7-3.6,25.6-16.7,27.9-22.5.9-2.8,2.5-6.8-.7-13.2Z"/>
      <path id="path86" class="st1" d="M64.24,12c-1.79-1.86-3.73-3.57-5.8-5.1C50.33,1.14,40.24-1.13,30.44.6,11.64,4.2,5.04,17.5,2.44,23.1c-.9,2.8-1.9,7,1,13,3.9,8,18.2-23.6,45-23.4,4.26-.03,8.47.93,12.3,2.8l3.5-3.5Z"/>
      <path id="path88" class="st3" d="M64.24,12c-1.79-1.86-3.73-3.57-5.8-5.1C50.33,1.14,40.24-1.13,30.44.6,11.64,4.2,5.04,17.5,2.44,23.1c-.9,2.8-1.9,7,1,13,3.9,8,18.2-23.6,45-23.4,4.26-.03,8.47.93,12.3,2.8l3.5-3.5Z"/>
      <path id="path90" class="st2" d="M71.94,41.3c-1.5-5.4-5.6-11.5-17.8-17.2h.1q-.1,0-.1-.1c-19.2-8.8-37-4.4-41.2-9.4-1.42-1.45-1.67-3.68-.6-5.4-4.8,3.9-9,11.3-10.2,14.8-.91,2.86-.94,5.92-.1,8.8,1.5,5.3,5.6,11.4,17.7,17.1h.1c19.4,8.8,37,4.5,41.2,9.4,1.4,1.6,1.9,3.5.8,5,4.9-3.9,9.1-11.6,10.1-15.5.7-2.45.7-5.05,0-7.5Z"/>
    </g>
  </g>
</svg>